<svg xmlns="http://www.w3.org/2000/svg" width="58" height="58" viewBox="0 0 58 58"><path fill="#CADCEB" d="M58.1 38.9L19.2 0H0l58.1 58.1"/><g fill="#12A3EB"><path d="M19.4 10.3c.5-.5 1-.9 1.5-1.1.4-.1.8-.2 1.2-.2s.8.1 1.1.2c.4.2.9.5 1.3.9.7.7 1.1 1.6 1.1 2.5 0 .9-.4 1.8-1.3 2.6-.8.8-1.7 1.2-2.6 1.3-.9 0-1.7-.3-2.5-1.1s-1.1-1.6-1.1-2.5c.1-.9.5-1.8 1.3-2.6zm1.1 1c-.6.6-.9 1.2-.9 1.7 0 .6.2 1 .6 1.5.4.4.9.6 1.4.6.6 0 1.1-.3 1.7-.9.6-.6.9-1.1.9-1.7s-.2-1-.6-1.4c-.4-.4-.9-.6-1.5-.6-.5-.1-1 .2-1.6.8zM22.6 18.5l5.1-5.1 1 1-1.3 5.5 3.4-3.4.9.9-5.1 5.1-1-1 1.3-5.3-3.3 3.3-1-1zM27.7 23.6l5-5 1 1-4.1 4.2 2.5 2.5-.9.9-3.5-3.6zM32 27.9l5.1-5.1 1 1-5.1 5.1-1-1zM34 29.9l5.1-5.1 1 1-1.3 5.5 3.4-3.4.9.9-5.1 5.1-1-1 1.3-5.3-3.3 3.3-1-1zM39.1 35l5.1-5.1 3.8 3.8-.9.9-2.7-2.7-1.1 1.1 2.5 2.5-.9.9-2.5-2.5-1.4 1.4 2.8 2.8-.9.9-3.8-4z"/></g></svg>