<svg xmlns="http://www.w3.org/2000/svg" width="27" height="27" viewBox="0 0 27 27">
<path fill="none" d="M3 13.5C3 19.3 7.7 24 13.5 24 7.7 24 3 19.3 3 13.5zM13.5 3C7.7 3 3 7.7 3 13.5 3 7.7 7.7 3 13.5 3zM24 13.5C24 7.7 19.3 3 13.5 3 19.3 3 24 7.7 24 13.5zM13.5 24C19.3 24 24 19.3 24 13.5 24 19.3 19.3 24 13.5 24z"/>
<path fill="#2A77B9" d="M13.5 0C6 0 0 6 0 13.5S6 27 13.5 27 27 21 27 13.5 21 0 13.5 0zm0 26C6.6 26 1 20.4 1 13.5S6.6 1 13.5 1 26 6.6 26 13.5 20.4 26 13.5 26z"/>
<path fill="#FFF" d="M13.5 1C6.6 1 1 6.6 1 13.5S6.6 26 13.5 26 26 20.4 26 13.5 20.4 1 13.5 1zm0 23C7.7 24 3 19.3 3 13.5S7.7 3 13.5 3 24 7.7 24 13.5 19.3 24 13.5 24z"/>
<circle fill="#FFF" cx="13.5" cy="13.5" r="10.5"/>
<linearGradient id="a" gradientUnits="userSpaceOnUse" x1="1547.198" y1="-2798.43" x2="1547.198" y2="-2777.43" gradientTransform="matrix(1 0 0 -1 -1533.698 -2774.43)">
<stop offset="0" stop-color="#FFF"/>
<stop offset="1" stop-color="#D4D4D4"/></linearGradient><circle fill="url(#a)" cx="13.5" cy="13.5" r="10.5"/>
<g>
<path fill="none" d="M24.9 16.9c0 .1 0 .1 0 0 0 .1 0 .1 0 0zM22 15c-.9.2-1.6.8-1.9 1.7.3-.8 1-1.5 1.9-1.7zm-2 2c.1 0 .1 0 0 0 .1 0 .1 0 0 0zm4.9-.3c-.3-.8-1-1.5-1.9-1.7.9.2 1.6.9 1.9 1.7zm-2.4-.7c-.8 0-1.5.7-1.5 1.5V19h3v-1.5c0-.8-.7-1.5-1.5-1.5z"/>
<path d="M26 19v-1.5c0-1.9-1.6-3.5-3.5-3.5S19 15.6 19 17.5V19h-1v6h9v-6h-1zm0 5h-7v-4h1V16.9c0-.1 0-.2.1-.2.3-.8 1-1.5 1.9-1.7h1c.9.2 1.6.8 1.9 1.7 0 .1 0 .2.1.2V20h1v4z"/><path fill="#A0A0A1" d="M25 19v-2.1c0-.1 0-.2-.1-.2-.3-.8-1-1.5-1.9-1.7h-1c-.9.2-1.6.8-1.9 1.7 0 .1 0 .2-.1.2V20h-1v4h7v-4h-1v-1zm-1 1h-3v-2.5c0-.8.7-1.5 1.5-1.5s1.5.7 1.5 1.5V20z"/>
<path d="M21 19h3v1h-3v-1z"/></g><g><path fill="#6D7277" d="M15.4 10.5l-2.1 7.3c-.1.4-.2.7-.2.8 0 .1 0 .1.1.2s.1.1.2.1.2-.1.3-.2c.3-.3.7-.7 1.1-1.4l.3.2c-1 1.8-2.1 2.7-3.3 2.7-.4 0-.8-.1-1.1-.4-.3-.2-.4-.6-.4-.9 0-.3.1-.6.2-1l1.4-4.9c.1-.5.2-.8.2-1.1 0-.2-.1-.3-.2-.4s-.3-.2-.5-.2H11l.1-.4 3.5-.6h.8v.2zm-.7-4.7c.4 0 .8.1 1.1.4.3.3.4.6.4 1.1s-.1.8-.4 1.1c-.3.3-.6.4-1.1.4-.4 0-.8-.1-1.1-.4-.3-.3-.4-.6-.4-1.1s.1-.8.4-1.1c.3-.3.7-.4 1.1-.4z"/>
</g>
</svg>