<svg xmlns="http://www.w3.org/2000/svg" width="27" height="27" viewBox="0 0 27 27"><path fill="#BE3657" d="M13.5 0C6 0 0 6 0 13.5S6 27 13.5 27 27 21 27 13.5 21 0 13.5 0zm0 26C6.6 26 1 20.4 1 13.5S6.6 1 13.5 1 26 6.6 26 13.5 20.4 26 13.5 26z"/><path fill="#FFF" d="M13.5 1C6.6 1 1 6.6 1 13.5S6.6 26 13.5 26 26 20.4 26 13.5 20.4 1 13.5 1zm0 23C7.7 24 3 19.3 3 13.5S7.7 3 13.5 3 24 7.7 24 13.5 19.3 24 13.5 24z"/><circle fill="#FFF" cx="13.5" cy="13.5" r="10.5"/><linearGradient id="a" gradientUnits="userSpaceOnUse" x1="1328.0977" y1="2468.9414" x2="1328.0977" y2="2447.9414" gradientTransform="rotate(180 670.8 1235.97)"><stop offset="0" stop-color="#FFF"/><stop offset="1" stop-color="#D4D4D4"/></linearGradient><circle fill="url(#a)" cx="13.5" cy="13.5" r="10.5"/><path d="M11 7V6H9v1h1M9 9h2v1H9V9zm8 0h1v1h-1V9zm-8 2h1v1H9v-1z"/><path fill="#BE3657" d="M11 6h4v1h-4V6zM9 7h1v1H9V7zm2 2h6v1h-6V9zm-1 2h7v1h-7v-1z"/><path fill="#F06F8E" d="M10 7v1h5V7h-4m6 4h1v1h-1v-1z"/><g><path d="M11 16v-1H9v1h1m-1 2h2v1H9v-1zm8 0h1v1h-1v-1zm-8 2h1v1H9v-1z"/><path fill="#BE3657" d="M11 15h4v1h-4v-1zm-2 1h1v1H9v-1zm2 2h6v1h-6v-1zm-1 2h7v1h-7v-1z"/><path fill="#F06F8E" d="M10 16v1h5v-1h-4m6 4h1v1h-1v-1z"/></g><g><path fill="none" d="M22.9 17.7c-.3-.8-1-1.5-1.9-1.7.9.2 1.6.9 1.9 1.7zm0 .2c0 .1 0 .1 0 0 0 .1 0 .1 0 0zM20 16c-.9.2-1.6.8-1.9 1.7.3-.8 1-1.5 1.9-1.7zm-2 2c.1 0 .1 0 0 0 .1 0 .1 0 0 0zm2.5-1c-.8 0-1.5.7-1.5 1.5V20h3v-1.5c0-.8-.7-1.5-1.5-1.5z"/><path d="M24 20v-1.5c0-1.9-1.6-3.5-3.5-3.5S17 16.6 17 18.5V20h-1v6h9v-6h-1zm0 5h-7v-4h1V17.9c0-.1 0-.2.1-.2.3-.8 1-1.5 1.9-1.7h1c.9.2 1.6.8 1.9 1.7 0 .1 0 .2.1.2V21h1v4z"/><path fill="#B68A94" d="M23 20v-2.1c0-.1 0-.2-.1-.2-.3-.8-1-1.5-1.9-1.7h-1c-.9.2-1.6.8-1.9 1.7 0 .1 0 .2-.1.2V21h-1v4h7v-4h-1v-1zm-1 1h-3v-2.5c0-.8.7-1.5 1.5-1.5s1.5.7 1.5 1.5V21z"/><path d="M19 20h3v1h-3v-1z"/></g></svg>