<svg xmlns="http://www.w3.org/2000/svg" width="27" height="27" viewBox="0 0 27 27"><path fill="#2A77B9" d="M13.5 0C6 0 0 6 0 13.5S6 27 13.5 27 27 21 27 13.5 21 0 13.5 0zm0 26C6.6 26 1 20.4 1 13.5S6.6 1 13.5 1 26 6.6 26 13.5 20.4 26 13.5 26z"/><path fill="#FFF" d="M13.5 1C6.6 1 1 6.6 1 13.5S6.6 26 13.5 26 26 20.4 26 13.5 20.4 1 13.5 1zm0 23C7.7 24 3 19.3 3 13.5S7.7 3 13.5 3 24 7.7 24 13.5 19.3 24 13.5 24z"/><linearGradient id="a" gradientUnits="userSpaceOnUse" x1="1985.398" y1="-3613.412" x2="1985.398" y2="-3592.412" gradientTransform="matrix(1 0 0 -1 -1971.897 -3589.412)"><stop offset="0" stop-color="#FFF"/><stop offset="1" stop-color="#D4D4D4"/></linearGradient><circle fill="url(#a)" cx="13.5" cy="13.5" r="10.5"/><g><path fill="#FFF" d="M7 8.7h13v9.5H7V8.7z"/><path fill="#666" d="M20 8H6v11h15V8h-1zm0 10H7V9h13v9z"/><path fill="#666" d="M8.7 17l3-3 1.3 1.4.5.4 1.8-1.8 3 3 .7-.7-3-3 3-3-.7-.7-4.8 4.8-4.8-4.8-.7.7 3 3-3 3"/></g></svg>