<svg xmlns="http://www.w3.org/2000/svg" width="15" height="12" viewBox="0 0 15 12"><path d="M8 5.9c.3-.3.6-.4 1-.4h1.6c.2 0 .3-.1.5-.2.1-.1.2-.3.2-.5v-.2c0-.5-.2-.9-.5-1.3-.5-.3-.9-.5-1.4-.5h-.5c-.1 0-.2 0-.3-.1-.1-.1-.1-.2-.1-.3v-.9c0-.1 0-.2.1-.3.1-.2.2-.2.3-.2h.5c.5 0 1 .1 1.4.3.4.2.8.4 1.2.8.3.3.6.7.8 1.2.1.4.2.8.2 1.3v5c0 .4-.1.7-.4 1-.3.3-.6.4-1 .4H8.9c-.4 0-.7-.1-1-.4-.3-.3-.4-.6-.4-1V6.9c.1-.4.2-.7.5-1zm-6.3 0c.3-.3.6-.4 1-.4h1.6c.2 0 .3-.1.5-.2 0-.1.1-.3.1-.5v-.2c0-.5-.2-.9-.5-1.3-.4-.3-.8-.5-1.3-.5h-.5c-.1 0-.2 0-.3-.1-.1-.1-.1-.2-.1-.3v-.9c0-.1 0-.2.1-.3.1-.2.2-.2.3-.2h.5c.5 0 1 .1 1.4.3.4.2.8.4 1.2.8.3.3.5.7.7 1.1.2.4.3.9.3 1.4v5c0 .4-.1.7-.4 1-.3.3-.6.4-1 .4H2.6c-.4 0-.7-.1-1-.4-.3-.3-.4-.6-.4-1V6.9c.1-.4.2-.7.5-1z"/></svg>