<svg xmlns="http://www.w3.org/2000/svg" width="15" height="12" viewBox="0 0 15 12"><path d="M7.4 6.9v2.7c0 .4-.1.7-.4 1-.3.3-.6.4-1 .4H3.4c-.4 0-.7-.1-1-.4-.3-.3-.4-.7-.4-1v-5c0-.5.1-1 .3-1.4.2-.4.4-.8.8-1.2.3-.3.7-.6 1.2-.8.4-.1.8-.2 1.3-.2h.5c.1 0 .2 0 .3.1.1.1.1.2.1.3v.9c0 .1 0 .2-.1.3-.1.2-.2.2-.3.2h-.5c-.5 0-.9.2-1.3.5-.3.4-.5.8-.5 1.3v.2c0 .2.1.4.2.5.1.1.3.2.5.2h1.6c.4 0 .7.1 1 .4.2.3.3.6.3 1zm6.3 0v2.7c0 .4-.1.7-.4 1-.3.3-.6.4-1 .4H9.7c-.4 0-.7-.1-1-.4-.3-.3-.4-.6-.4-1v-5c0-.5.1-1 .3-1.4.2-.4.4-.8.8-1.1.3-.3.7-.6 1.2-.8.4-.2.8-.3 1.3-.3h.5c.1 0 .2 0 .3.1.1.1.1.2.1.3v.9c0 .1 0 .2-.1.3-.1.1-.2.1-.3.1h-.5c-.5 0-.9.2-1.3.5-.4.4-.5.8-.5 1.3v.2c0 .2.1.3.2.5.1.1.3.2.5.2h1.6c.4 0 .7.1 1 .4.2.4.3.7.3 1.1z"/></svg>