<svg xmlns="http://www.w3.org/2000/svg" width="27" height="27" viewBox="0 0 27 27"><path fill="#BD3C5B" d="M13 0C7.5 0 3 4.5 3 10c0 3.7 2 6.9 5 8.6V22c0 2.8 2.2 5 5 5s5-2.2 5-5v-3.4c3-1.7 5-4.9 5-8.6 0-5.5-4.5-10-10-10zm4 18.1V22c0 2.2-1.8 4-4 4s-4-1.8-4-4v-3.9c-3-1.5-5-4.5-5-8.1 0-5 4-9 9-9s9 4 9 9c0 3.5-2 6.6-5 8.1z"/><path fill="#FFF" d="M13 1c-5 0-9 4-9 9 0 3.5 2 6.6 5 8.1V22c0 2.2 1.8 4 4 4s4-1.8 4-4v-3.9c3-1.5 5-4.5 5-8.1 0-5-4-9-9-9zm0 16c-3.9 0-7-3.1-7-7s3.1-7 7-7 7 3.1 7 7-3.1 7-7 7z"/><circle fill="#FFF" cx="13" cy="10" r="7"/><linearGradient id="a" gradientUnits="userSpaceOnUse" x1="2203.997" y1="4091.902" x2="2203.997" y2="4077.902" gradientTransform="translate(-2190.996 -4074.902)"><stop offset="0" stop-color="#FFF"/><stop offset="1" stop-color="#D4D4D4"/></linearGradient><circle fill="url(#a)" cx="13" cy="10" r="7"/><g><path d="M12 7V6h-2v1h1M10 9h2v1h-2z"/><path fill="#CC4B6A" d="M12 6h4v1h-4zM10 7h1v1h-1zM12 9h5v1h-5z"/><path fill="#F06F8E" d="M11 7v1h5V7h-4"/></g><g><path fill="#883549" d="M13.3 18.7h-.5c-.1-.6-.2-1.4-.5-2.2l-.6-1.8c-.4-1.1-.6-1.8-.6-2.3 0-.4.2-.8.5-1 .4-.3.8-.4 1.4-.4s1 .1 1.4.4c.4.3.6.6.6 1s-.2 1.2-.6 2.3l-.6 1.8c-.3.6-.4 1.3-.5 2.2zM13 20c.6 0 1 .2 1.4.6.4.4.6.8.6 1.4 0 .5-.2 1-.6 1.4-.4.4-.8.6-1.4.6s-1-.2-1.4-.6c-.4-.4-.6-.8-.6-1.4 0-.5.2-1 .6-1.4.4-.4.8-.6 1.4-.6z"/></g></svg>