<svg xmlns="http://www.w3.org/2000/svg" width="27" height="27" viewBox="0 0 27 27"><path fill="#2A77B9" d="M13 0C7.5 0 3 4.5 3 10c0 3.7 2 6.9 5 8.6V22c0 2.8 2.2 5 5 5s5-2.2 5-5v-3.4c3-1.7 5-4.9 5-8.6 0-5.5-4.5-10-10-10zm4 18.1V22c0 2.2-1.8 4-4 4s-4-1.8-4-4v-3.9c-3-1.5-5-4.5-5-8.1 0-5 4-9 9-9s9 4 9 9c0 3.5-2 6.6-5 8.1z"/><path fill="#FFF" d="M13 1c-5 0-9 4-9 9 0 3.5 2 6.6 5 8.1V22c0 2.2 1.8 4 4 4s4-1.8 4-4v-3.9c3-1.5 5-4.5 5-8.1 0-5-4-9-9-9zm0 16c-3.9 0-7-3.1-7-7s3.1-7 7-7 7 3.1 7 7-3.1 7-7 7z"/><circle fill="#FFF" cx="13" cy="10" r="7"/><linearGradient id="a" gradientUnits="userSpaceOnUse" x1="1765.798" y1="3276.922" x2="1765.798" y2="3262.922" gradientTransform="translate(-1752.797 -3259.922)"><stop offset="0" stop-color="#FFF"/><stop offset="1" stop-color="#D4D4D4"/></linearGradient><circle fill="url(#a)" cx="13" cy="10" r="7"/><g><path fill="none" d="M23.9 12.9c0 .1 0 .1 0 0 0 .1 0 .1 0 0zM21 11c-.9.2-1.6.8-1.9 1.7.3-.8 1-1.5 1.9-1.7zM23.9 12.7c-.3-.8-1-1.5-1.9-1.7.9.2 1.6.9 1.9 1.7zM21.5 12c-.8 0-1.5.7-1.5 1.5V15h3v-1.5c0-.8-.7-1.5-1.5-1.5zM19 13c.1 0 .1 0 0 0 .1 0 .1 0 0 0z"/><path d="M25 15v-1.5c0-1.9-1.6-3.5-3.5-3.5S18 11.6 18 13.5V15h-1v6h9v-6h-1zm0 5h-7v-4h1v-2.8V12.9c0-.1 0-.2.1-.2.3-.8 1-1.5 1.9-1.7h1c.9.2 1.6.8 1.9 1.7 0 .1 0 .2.1.2V16h1v4z"/><path fill="#A0A0A1" d="M24 15v-1.8V12.9c0-.1 0-.2-.1-.2-.3-.8-1-1.5-1.9-1.7h-1c-.9.2-1.6.8-1.9 1.7 0 .1 0 .2-.1.2V16h-1v4h7v-4h-1v-1zm-1 1h-3v-2.5c0-.8.7-1.5 1.5-1.5s1.5.7 1.5 1.5V16z"/><path d="M20 15h3v1h-3z"/></g><g><path d="M12 7V6h-2v1h1M10 9h2v1h-2z"/><path fill="#757575" d="M12 6h4v1h-4zM10 7h1v1h-1zM12 9h5v1h-5z"/><path fill="#989899" d="M11 7v1h5V7h-4"/></g><g><path fill="#757575" d="M13.3 18.7h-.5c-.1-.6-.2-1.4-.5-2.2l-.6-1.8c-.4-1.1-.6-1.8-.6-2.3 0-.4.2-.8.5-1 .4-.3.8-.4 1.4-.4s1 .1 1.4.4c.4.3.6.6.6 1s-.2 1.2-.6 2.3l-.6 1.8c-.3.6-.4 1.3-.5 2.2zM13 20c.6 0 1 .2 1.4.6.4.4.6.8.6 1.4 0 .5-.2 1-.6 1.4-.4.4-.8.6-1.4.6s-1-.2-1.4-.6c-.4-.4-.6-.8-.6-1.4 0-.5.2-1 .6-1.4.4-.4.8-.6 1.4-.6z"/></g></svg>