<svg xmlns="http://www.w3.org/2000/svg" xmlns:xlink="http://www.w3.org/1999/xlink" width="27" height="27" viewBox="0 0 27 27">
<path fill="#2A77B9" d="M13.5 0C6 0 0 6 0 13.5S6 27 13.5 27 27 21 27 13.5 21 0 13.5 0zm0 26C6.6 26 1 20.4 1 13.5S6.6 1 13.5 1 26 6.6 26 13.5 20.4 26 13.5 26z"/>
<path fill="#FFF" d="M13.5 1C6.6 1 1 6.6 1 13.5S6.6 26 13.5 26 26 20.4 26 13.5 20.4 1 13.5 1zm0 23C7.7 24 3 19.3 3 13.5S7.7 3 13.5 3 24 7.7 24 13.5 19.3 24 13.5 24z"/>
<circle fill="#FFF" cx="13.5" cy="13.5" r="10.5"/>
<linearGradient id="a" gradientUnits="userSpaceOnUse" x1="1108.999" y1="-1983.451" x2="1108.999" y2="-1962.451" gradientTransform="matrix(1 0 0 -1 -1095.498 -1959.45)">
<stop offset="0" stop-color="#FFF"/>
<stop offset="1" stop-color="#D4D4D4"/>
</linearGradient>
<circle fill="url(#a)" cx="13.5" cy="13.5" r="10.5"/>
<g id="b">
<path fill="#666" d="M8 11.1h11v.9H8zM8 13.1h11v.9H8zM8 15h11v1H8zM8 19h6v1H8zM8 17h11v1H8zM8 7h8v1H8z"/>
<path fill="#999" d="M8 8h8v1H8z"/>
<animateTransform xlink:href="#b" attributeName="transform" dur="2s" type="rotate" from="0 13.5 13.5" to="360 13.5 13.5" repeatCount="indefinite"/>
</g>
</svg>