<svg xmlns="http://www.w3.org/2000/svg" width="27" height="27" viewBox="0 0 27 27">
<path fill="#2A77B9" d="M13.5 0C6 0 0 6 0 13.5S6 27 13.5 27 27 21 27 13.5 21 0 13.5 0zm0 26C6.6 26 1 20.4 1 13.5S6.6 1 13.5 1 26 6.6 26 13.5 20.4 26 13.5 26z"/>
<circle fill="#FFF" cx="13.5" cy="13.5" r="10.5"/>
<linearGradient id="a" gradientUnits="userSpaceOnUse" x1="1108.999" y1="-1983.451" x2="1108.999" y2="-1962.451" gradientTransform="matrix(1 0 0 -1 -1095.498 -1959.45)">
<stop offset="0" stop-color="#FFF"/>
<stop offset="1" stop-color="#D4D4D4"/>
</linearGradient><circle fill="url(#a)" cx="13.5" cy="13.5" r="10.5"/>
<g>
<path fill="#FFF" d="M27.3 4.4l-.9-2.9-2.3.7V0h-3v2.4l-2.2-.8-.9 2.9 2.3.8-1.4 2L21.3 9l1.5-2 1.6 2.2 2.4-1.8-1.7-2.3 2.2-.7zm-2 2.8l-.8.6-1.8-2.4L21 7.8l-.9-.6L22 4.7l-2.9-.9.4-1 2.6.9V1h1v2.7l2.7-.9.3 1-2.7.8 1.9 2.6z"/>
<path fill="#95213D" d="M26.1 3.8l-.3-1-2.7.9V1h-1v2.7l-2.6-.9-.4 1 2.9.9-1.9 2.5.9.6 1.7-2.4 1.8 2.4.8-.6-1.9-2.6"/>
</g>
<g>
<path fill="#6D7277" d="M15.4 10.5l-2.1 7.3c-.1.4-.2.7-.2.8 0 .1 0 .1.1.2s.1.1.2.1.2-.1.3-.2c.3-.3.7-.7 1.1-1.4l.3.2c-1 1.8-2.1 2.7-3.3 2.7-.4 0-.8-.1-1.1-.4-.3-.2-.4-.6-.4-.9 0-.3.1-.6.2-1l1.4-4.9c.1-.5.2-.8.2-1.1 0-.2-.1-.3-.2-.4s-.3-.2-.5-.2H11l.1-.4 3.5-.6h.8v.2zm-.7-4.7c.4 0 .8.1 1.1.4.3.3.4.6.4 1.1s-.1.8-.4 1.1c-.3.3-.6.4-1.1.4-.4 0-.8-.1-1.1-.4-.3-.3-.4-.6-.4-1.1s.1-.8.4-1.1c.3-.3.7-.4 1.1-.4z"/>
</g>
</svg>