<svg xmlns="http://www.w3.org/2000/svg" width="27" height="27" viewBox="0 0 27 27"><path fill="#2A77B9" d="M13.5 0C6 0 0 6 0 13.5S6 27 13.5 27 27 21 27 13.5 21 0 13.5 0zm0 26C6.6 26 1 20.4 1 13.5S6.6 1 13.5 1 26 6.6 26 13.5 20.4 26 13.5 26z"/><path fill="#FFF" d="M13.5 1C6.6 1 1 6.6 1 13.5S6.6 26 13.5 26 26 20.4 26 13.5 20.4 1 13.5 1zm0 23C7.7 24 3 19.3 3 13.5S7.7 3 13.5 3 24 7.7 24 13.5 19.3 24 13.5 24z"/><circle fill="#FFF" cx="13.5" cy="13.5" r="10.5"/><linearGradient id="a" gradientUnits="userSpaceOnUse" x1="1328.0977" y1="2468.9414" x2="1328.0977" y2="2447.9414" gradientTransform="rotate(180 670.8 1235.97)"><stop offset="0" stop-color="#FFF"/><stop offset="1" stop-color="#D4D4D4"/></linearGradient><circle fill="url(#a)" cx="13.5" cy="13.5" r="10.5"/><path d="M11 17v-1H9v1h1"/><path fill="#757575" d="M11 16h4v1h-4v-1zm-2 1h1v1H9v-1z"/><path fill="#999" d="M10 17v1h5v-1h-4m6 4h1v1h-1v-1z"/><path fill="#757575" d="M10 21h7v1h-7v-1z"/><path d="M9 21h1v1H9v-1zm8-2h1v1h-1v-1zm-8 0h2v1H9v-1z"/><path fill="#757575" d="M11 19h6v1h-6v-1z"/><g><path fill="#368AD2" d="M11 6v1h6v6h1V6"/><path fill="#266093" d="M17 7h-6v1h3.6l-3.7 3.7 1.4 1.4L16 9.4V13h1V8.4"/></g></svg>