<svg xmlns="http://www.w3.org/2000/svg" width="27" height="27" viewBox="0 0 27 27"><path fill="#BE3657" d="M13.5 0C6 0 0 6 0 13.5S6 27 13.5 27 27 21 27 13.5 21 0 13.5 0zm0 26C6.6 26 1 20.4 1 13.5S6.6 1 13.5 1 26 6.6 26 13.5 20.4 26 13.5 26z"/><path fill="#FFF" d="M13.5 1C6.6 1 1 6.6 1 13.5S6.6 26 13.5 26 26 20.4 26 13.5 20.4 1 13.5 1zm0 23C7.7 24 3 19.3 3 13.5S7.7 3 13.5 3 24 7.7 24 13.5 19.3 24 13.5 24z"/><circle fill="#FFF" cx="13.5" cy="13.5" r="10.5"/><linearGradient id="a" gradientUnits="userSpaceOnUse" x1="1547.1992" y1="-2798.4297" x2="1547.1992" y2="-2777.4297" gradientTransform="matrix(-1 0 0 1 1560.7 2801.43)"><stop offset="0" stop-color="#FFF"/><stop offset="1" stop-color="#D4D4D4"/></linearGradient><circle fill="url(#a)" cx="13.5" cy="13.5" r="10.5"/><path d="M11 7V6H9v1h1M9 9h2v1H9V9zm8 0h1v1h-1V9zm-8 2h1v1H9v-1z"/><path fill="#BE3657" d="M11 6h4v1h-4V6zM9 7h1v1H9V7zm2 2h6v1h-6V9zm-1 2h7v1h-7v-1z"/><path fill="#F06F8E" d="M10 7v1h5V7h-4m6 4h1v1h-1v-1z"/><path d="M11 16v-1H9v1h1m-1 2h2v1H9v-1zm8 0h1v1h-1v-1zm-8 2h1v1H9v-1z"/><path fill="#BE3657" d="M11 15h4v1h-4v-1zm-2 1h1v1H9v-1zm2 2h6v1h-6v-1zm-1 2h7v1h-7v-1z"/><path fill="#F06F8E" d="M10 16v1h5v-1h-4m6 4h1v1h-1v-1z"/><g><path fill="#BE3657" d="M20.1 13c-3.9 0-7 3.1-7 7s3.1 7 7 7 7-3.1 7-7-3.1-7-7-7zM20 26c-3.3 0-6-2.7-6-6s2.7-6 6-6 6 2.7 6 6-2.7 6-6 6z"/><circle fill="#FFF" cx="20" cy="20" r="6"/></g><g><path d="M19 19v-1h-2v1h1m-1 2h2v1h-2v-1z"/><path fill="#C74867" d="M19 18h3v1h-3v-1zm-2 1h1v1h-1v-1zm2 2h4v1h-4v-1z"/><path fill="#F06F8E" d="M18 19v1h4v-1h-3"/></g></svg>