<svg xmlns="http://www.w3.org/2000/svg" width="259" height="16" viewBox="0 0 259 16"><path fill="#222121" d="M256.3023.154c-.5886-.5915-1.1772-.8873-2.06-.8873-.7358 0-1.4715.2958-2.06.8872-.5887.5913-.883 1.3306-.883 2.07 0 .5913.147 1.1827.5886 1.7742-1.3245.887-1.913 2.3657-2.2074 4.4357 0 .2956 0 .4435-.147.5913-.4415.8872-1.03 1.4786-1.913 1.9222-.2943.1478-.5886.2957-.883.2957l-1.03.1478 1.3244 3.8443.4414-.1478c1.3244-.2957 2.5015-.7393 3.3844-1.4786.5886-.4437 1.1772-1.035 1.7658-1.7744 1.4715.7393 2.5015 1.7743 2.943 2.9572l.2943.4435 3.09-1.7743-.1472-.4435c-.7357-1.7743-1.7657-3.105-3.2372-4.14.7357-.148 1.7658-.4436 2.7958-1.035l.4414-.2957-1.3243-3.105-.4414.2957c-.7357.2957-1.4714.4435-2.2072.4435.5886-.1478 1.1772-.4435 1.6187-1.035s.5886-1.1828.5886-1.7743c.1472-.887-.147-1.6264-.7357-2.2178zm1.4715 6.9492c-.7357.4436-1.4715.5914-2.06.7393l-1.4716-.148h-.2943c-.2944 0-.4415.148-.4415.4437 0 .1478 0 .2957.147.4436l.4416.2957c.4415.1478.7358.4435 1.03.7393 1.1773.887 2.0602 2.07 2.6488 3.4007l-1.4715.887c-.7357-1.3306-1.913-2.2177-3.6787-2.957 0 0-.147-.148-.2943-.148-.147 0-.2943 0-.2943.148l-.2943.2957c-.5886.7393-1.03 1.3307-1.4715 1.6264-.7357.5914-1.6186 1.035-2.7958 1.3307l-.7357-1.7743c1.6186-.4435 2.7958-1.3307 3.3844-2.8092 0-.148.1472-.4436.1472-.8872.1472-1.035.2943-1.7743.5886-2.5136.2943-.5914.7358-1.035 1.3244-1.4785.2943.1478.5886.2957 1.03.4435v.148c0 .1477 0 .2956.147.4435l.1473.2957.2943.1478c1.03.2958 2.06.2958 3.09-.1478l.883 1.035zM254.2422.4496c.5886 0 .883.148 1.3244.5914.4414.4436.5886.7393.5886 1.3307 0 .5915-.1472.8872-.5886 1.3308-.2943.4435-.7358.5914-1.3244.5914s-.883-.148-1.3243-.5915c-.4415-.2958-.5887-.7393-.5887-1.3308 0-.5914.1472-.887.5886-1.3307.4413-.4435.7356-.5914 1.3242-.5914z"/><path fill="#F9D817" d="M254.2422 4.146c.5886 0 .883-.1478 1.3244-.5914.4414-.2957.5886-.7393.5886-1.3307 0-.5915-.1472-.8873-.5886-1.3308-.2943-.4436-.7358-.5915-1.3244-.5915s-.883.148-1.3243.5915c-.4415.4435-.5887.7393-.5887 1.3307 0 .5913.1472.887.5886 1.3306.4413.4436.7356.5914 1.3242.5914zM257.1852 5.7725c-1.03.4435-2.06.5914-3.09.1478l-.2944-.1478-.1472-.2958c0-.1478 0-.2957-.147-.4435v-.148c-.4415-.1477-.7358-.1477-1.03-.4435-.5887.2958-1.0302.7393-1.3245 1.4786-.2942.5915-.4413 1.4786-.5885 2.5136 0 .4435-.147.7392-.147.887-.736 1.4786-1.766 2.3658-3.3845 2.8093l.7357 2.07c1.1772-.2957 2.06-.7393 2.7958-1.3307.4415-.2957.883-.887 1.4715-1.6264l.2943-.2957c.1472-.148.1472-.148.2943-.148.1472 0 .1472 0 .2943.148 1.6185.7393 2.943 1.7743 3.6786 2.957l1.4715-.887c-.7356-1.3307-1.6185-2.5136-2.6486-3.4007-.2943-.2958-.7357-.4436-1.03-.7393l-.4415-.2957c-.1472 0-.2944-.148-.1472-.4436 0-.2957.147-.4436.4414-.4436h.2943l1.4715.148c.5886-.148 1.3244-.2958 2.06-.7394l-.8828-1.3307z"/><path fill="#1DA1F2" d="M219.9 2.2c-.6.3-1.3.5-2.1.6.7-.4 1.3-1.2 1.6-2-.7.4-1.5.7-2.3.9-.7-.7-1.6-1.1-2.6-1.1-2 0-3.6 1.6-3.6 3.6 0 .3 0 .6.1.8-3-.1-5.6-1.6-7.4-3.8-.4.5-.5 1.1-.5 1.7 0 1.2.6 2.4 1.6 3-.6 0-1.1-.2-1.6-.4 0 1.7 1.2 3.2 2.9 3.5-.3.1-.6.1-.9.1-.2 0-.5 0-.7-.1.5 1.4 1.8 2.5 3.4 2.5-1.2 1-2.8 1.5-4.5 1.5-.3 0-.6 0-.9-.1 1.6 1 3.5 1.6 5.5 1.6 6.6 0 10.2-5.5 10.2-10.2v-.5c.7-.3 1.3-.9 1.8-1.6z"/><path fill="#6001D2" d="M224.1-.6v16h16v-16h-16zm12.4 5.5l-1.1.2-2.6 3.1.2 2.7 1.5.1.1.7h-5.2l.1-.6 1.7-.3V8.2L228.8 4l-1.3-.3v-.6h4.4v.6l-1.4.2 1.8 3.6 1.8-2.4-1-.2-.1-.6h3.8l-.3.6z"/><path fill="#9C0" d="M188.4 5.7c-.3-.3-.7-.5-1.1-.6.5-.4.8-.9.8-1.6 0-1.1-.9-2-2.1-2s-2.1.9-2.1 2c0 .6.3 1.2.8 1.6-.3.1-2.2.9-2.4 3.2 0 .7.4.8.4.8s.2.2.4.2c.1.2.1.3.3.4 0 0 .2.5 1.9.6v-.1c.2-2.7 2.2-4 3.1-4.5z"/><path fill="#00ACEF" d="M196.8 9.1c-.5-1.7-1.9-2.8-3.4-3.3.7-.6 1.1-1.4 1.1-2.3 0-1.7-1.4-3-3.1-3-1.7 0-3.1 1.4-3.1 3 0 1 .5 1.8 1.2 2.4-.4.2-3.2 1.4-3.6 4.8 0 1 .6 1.2.6 1.2s.2.2.6.3c.1.2.2.4.4.6 0 0 .3.7 3.1.9h2.1c2.9-.2 3.2-1.1 3.2-1.1.1-.1.1-.2.2-.4 1.2-.3 1.1-1.9.7-3.1z"/><path fill="#00AFF0" d="M175.5 9c.1-.4.1-.7.1-1.1 0-3.9-3.1-7-7-7-.4 0-.7 0-1.1.1-.6-.4-1.4-.6-2.2-.6-2.3 0-4.2 1.9-4.2 4.2 0 .8.2 1.6.6 2.2-.1.4-.1.7-.1 1.1 0 3.9 3.1 7 7 7 .4 0 .7 0 1.1-.1.6.4 1.4.6 2.2.6 2.3 0 4.2-1.9 4.2-4.2 0-.8-.2-1.5-.6-2.2zm-3.6 2.1c-.3.4-.7.8-1.3 1-.6.2-1.2.4-2 .4-.9 0-1.7-.2-2.3-.5-.4-.2-.8-.6-1.1-.9-.3-.4-.4-.8-.4-1.2 0-.2.1-.4.3-.6.2-.2.4-.2.6-.2s.4.1.5.2c.1.1.3.3.4.5.1.3.2.5.4.7.1.2.3.3.6.5.2.1.6.2 1 .2.6 0 1-.1 1.4-.4.3-.2.5-.5.5-.9 0-.3-.1-.5-.3-.7s-.4-.3-.7-.4c-.3-.1-.7-.2-1.2-.3-.7-.1-1.2-.3-1.7-.5s-.8-.5-1.1-.8c-.3-.3-.4-.8-.4-1.3s.1-.9.4-1.3.7-.7 1.2-.9c.5-.2 1.2-.3 1.9-.3.6 0 1.1.1 1.5.2.4.1.8.3 1.1.5.3.2.5.5.6.7.1.2.2.5.2.7s-.1.4-.3.6c-.2.2-.4.3-.6.3-.2 0-.4-.1-.5-.2-.1-.1-.2-.3-.4-.5-.2-.3-.4-.6-.6-.8-.2-.2-.6-.3-1.1-.3s-.9.1-1.2.3c-.3.2-.4.4-.4.7 0 .2 0 .3.1.4s.2.2.4.3c.2.1.4.2.5.2.2.1.5.1.9.2.5.1 1 .2 1.4.4.4.1.8.3 1.1.5.3.2.5.5.7.8.2.3.3.7.3 1.1 0 .7-.1 1.2-.4 1.6z"/><path fill="none" d="M144.3 1.2c-1.1 0-1.8 1.1-1.6 2.5.2 1.4 1.2 2.4 2.3 2.5h.1c1.1 0 1.7-.9 1.5-2.3-.3-1.5-1.2-2.7-2.3-2.7zM144.8 9.1c-.1 0-.1 0 0 0-1.7 0-3 1-3 2.3 0 1.2 1.2 2.3 2.8 2.3 2.3 0 3.1-1 3.1-2.2 0-.1 0-.3-.1-.4-.2-.7-.9-1.1-1.8-1.7-.3-.2-.7-.3-1-.3z"/><path fill="#DD4B38" d="M149 .5h-4.1c-2.1 0-3.8 1.5-3.8 3.2 0 1.7 1.1 3.1 3.1 3.1h.4c-.1.2-.2.5-.2.8 0 .5.3.7.6 1.1h-.7c-2.4 0-4 1.6-4 3.2 0 1.5 2 2.5 4.4 2.5 2.7 0 4.4-1.5 4.4-3.1 0-1.2-.3-1.9-1.6-2.8-.4-.3-1.2-.9-1.2-1.3 0-.5.1-.7.8-1.2.7-.6 1.2-1.3 1.2-2.2 0-1-.4-1.9-1.2-2.3h1.1l.8-1zM147.6 11c0 .1.1.3.1.4 0 1.2-.8 2.2-3.1 2.2-1.6 0-2.8-1-2.8-2.3 0-1.2 1.4-2.3 3-2.3.4 0 .7.1 1.1.2.8.7 1.5 1.1 1.7 1.8zM145 6.2c-1.2 0-2.2-1-2.4-2.5-.2-1.4.5-2.5 1.6-2.5s2 1.2 2.2 2.7c.3 1.3-.3 2.3-1.4 2.3zM154 6.6V4.7h-.9v1.9h-1.9v.9h1.9v1.9h.9V7.5h1.9v-.9"/><path fill="#485A96" d="M132.7.5h-12.9c-.4 0-.8.4-.8.8v12.9c0 .4.4.8.8.8h6.9V9.4h-1.9V7.2h1.9V5.6c0-1.9 1.1-2.9 2.8-2.9.8 0 1.5.1 1.7.1v2H130c-.9 0-1.1.4-1.1 1.1v1.4h2.2l-.3 2.2H129V15h3.7c.4 0 .8-.4.8-.8V1.3c0-.4-.4-.8-.8-.8z"/><path fill="none" d="M129 15"/><path fill="#FFF" d="M130.9 9.4l.3-2.2H129V5.8c0-.6.2-1.1 1.1-1.1h1.2v-2c-.2 0-.9-.1-1.7-.1-1.7 0-2.8 1-2.8 2.9v1.6h-1.9v2.2h1.9V15h2.3V9.4h1.8z"/><g><path fill="#FFF" d="M108.8 7.9c.1 0 .3-.2.3-.4s-.1-.4-.3-.4l-4-2.5c-.1-.1-.4-.1-.5 0-.1 0-.3.2-.3.4v5c0 .2.1.3.3.5h.3c.2 0 .2 0 .3-.1l3.9-2.5z"/><path fill="#E02F2F" d="M113 6.3c0-.3 0-.6-.1-1 0-.5-.1-.8-.1-1.1-.1-.4-.3-.7-.5-1-.3-.3-.6-.4-1-.4-1.1-.2-2.9-.2-5.3-.2s-4.1 0-5.3.2c-.4 0-.6.2-1 .4-.3.3-.4.6-.5 1-.1.4-.1.7-.2 1.1V8.7c0 .3 0 .6.1 1.1 0 .5.1.8.1 1.2.1.3.3.7.5.9.3.3.6.4 1 .5 1.1.2 2.9.2 5.3.2s4.1 0 5.3-.3c.4 0 .6-.2 1-.5.3-.3.4-.5.5-1 .1-.3.1-.7.2-1.1v-1-1.2-1.2zm-8.7 4.2c-.1-.1-.3-.3-.3-.5V5c0-.2.1-.4.3-.4.1-.1.4-.1.5 0l4 2.5c.1 0 .3.2.3.4s-.1.4-.3.4l-4 2.5s-.1.1-.3.1h-.2z"/></g><g><path fill="#C00" d="M85.4.5h.5c.9.1 1.7.2 2.4.4s1.2.6 1.7 1.1l.1.1c.8.8 1.3 1.9 1.7 3.1.1.4.3.8.3 1.3V6.8c-.1 1.3-.7 2.1-1.3 2.8 0 0 0 .1-.1.1s-.1.1-.2.2c0 0-.1 0-.1.1-.3.3-.6.5-.9.7s-.7.4-1 .7l-.1.1c-.3.4-.6.8-.6 1.5v.2c0 .3.1.6.1.9v.1c0 .1 0 .3-.2.3h-.1s-.2 0-.3-.1c0-.1 0-.2-.1-.2-.1-.3-.1-.5-.1-.8V13.1 13v-.1c.1-.9.4-1.6.9-2.2l.1-.1c.2-.2.5-.4.8-.6.3-.2.5-.4.8-.7l.1-.1.1-.1c.3-.3.5-.6.7-1 .2-.4.4-.8.4-1.3v-.1-.1-.1c-.1-1.5-.6-2.7-1.3-3.5l-.1-.1c-.8-.8-1.9-1.2-3.3-1.3h-.6-.1-.1c-.4 0-.7 0-1.1.1-.3.1-.6.1-.9.3-.4.2-.6.5-.9.9l-.3.3c-.3.2-.3-.3-.3-.6V2.3v-.1-.1c0-.2 0-.4.1-.6v-.2s.1-.1.2-.1c.2-.1.4-.2.5-.2.5-.2 1-.4 1.6-.5h1c-.1 0-.1 0 0 0z"/><path fill="#D73434" d="M91.1 6.6c0 .1 0 .1 0 0z"/><path fill="#E37272" d="M91.1 6.7z"/><path fill="#D73434" d="M91.1 6.7s0 .1 0 0c0 .1 0 0 0 0z"/><path fill="#FFB400" d="M83.7 8c0-.6.2-1.1.8-1.1.3 0 .5.1.7.2.2.2.3.4.3.7v.1h.1l.4-.4c.2-.1.4-.3.7-.3h.1c.4.1.5.4.5.9v.1c0 .9-.5 1.3-.9 1.8 0 .1-.1.2-.2.3-.1.1-.1.2-.3.2-.2 0-.1-.4-.1-.6.1-.2.2-.3.4-.5s.3-.5.4-.8c.1-.1.1-.2.1-.4 0-.1-.1-.2-.2-.2h-.1c-.4.1-.6.4-.9.6l-.1.1c-.1 0-.1.1-.2.1-.1-.1-.1-.3-.2-.6 0-.3 0-.6-.3-.7-.1 0-.2 0-.3.1l-.1.1c-.3.4-.2 1.1-.1 1.7 0 .2 0 .3-.1.4-.1.1-.3 0-.4 0 0-.1-.1-.2-.1-.3-.1-.3-.1-.6-.1-.9.2-.5.2-.6.2-.6z"/><path fill="#F5C3AD" d="M86.6 7.1c.1 0 .1 0 0 0 .1 0 .1 0 0 0zM86.4 7.8s.1 0 0 0c.1 0 0 0 0 0zM85.5 7.8zM87.2 8zM83.7 8v0zM84.4 9c0 .1 0 0 0 0z"/><path fill="#C00" d="M82.8 11.5c-.1-.2-.4-.6-.3-.9.1-.1.2-.2.3-.2h.1c.1 0 .2.1.3.1l.1.1c.2.2.4.5.6.7l.1.1c.4.3.8.6 1.4.7h.2c.4 0 .6-.1 1-.2h.1c.1 0 .2.1.2.2s-.1.3-.2.3c-.1.1-.3.1-.5.2-.2 0-.4.1-.6.1h-.1-.1-.1c-1.1-.2-1.9-.6-2.5-1.2 0 .1 0 0 0 0z"/><path fill="#F5C3AD" d="M86.5 11.8zM82.5 12.1s.1 0 0 0c.1 0 0 0 0 0z"/><path fill="#C00" d="M82.4 12.7c0-.1-.1-.1-.2-.2s-.1-.2-.1-.3c0-.1.2-.1.4-.1h.1s.2.1.3.1l.1.1.1.1c.6.5 1.4.9 2.4 1h.8c.1 0 .2-.1.3 0 .2.1.3.6.1.7-.1.1-.3.1-.4.1h-.7c-1.4-.2-2.3-.7-3.2-1.5.1.1.1 0 0 0z"/><path fill="#E37272" d="M85.3 12.6z"/><path fill="#D73434" d="M85.3 12.6c.1 0 .1 0 0 0 .1 0 .1 0 0 0 .1 0 .1 0 0 0z"/><path fill="#E37272" d="M85.4 12.6s.1 0 0 0c.1 0 0 0 0 0zM87.2 13s0-.1 0 0z"/><path fill="#D73434" d="M87.2 13s0 .1 0 0zM85.6 13.4h0z"/><path fill="#C00" d="M82.4 14.5c-.1-.1-.3-.4-.2-.7 0-.1.1-.1.2-.2s.1-.1.3-.1c.1 0 .1.1.2.1l.1.1c.2.2.2.4.4.5.1.1.3.2.5.3.2.1.4.2.5.2l1.2.3h.2c.3 0 .6-.1.9-.2.1 0 .2-.1.3-.1.2 0 .1.2 0 .3l-.1.1c-.3.3-.8.4-1.3.5H85.3c-.6 0-1.1-.2-1.6-.3-.5-.2-.9-.4-1.3-.8z"/><path fill="#F5C3AD" d="M87.9 14.1c0 .1 0 .1 0 0 0 .1 0 .1 0 0z"/><path fill="#E37272" d="M89.9 2l.1.1s-.1 0-.1-.1z"/><path fill="#F5C3AD" d="M90.7 9.7z"/><path fill="#E37272" d="M90.5 9.9c0-.1.1-.1.2-.2l-.2.2z"/><path fill="#F5C3AD" d="M90.4 10c.1-.1.1-.1 0 0 .1-.1.1-.1 0 0z"/><path fill="#E37272" d="M88.4 11.5c.1-.1.1-.1 0 0 .1-.1.1-.1 0 0zM88.1 10.7c0-.1 0-.1 0 0 0-.1 0-.1 0 0z"/><path fill="#D73434" d="M89.7 9.3c.1 0 .1 0 0 0 .1 0 .1 0 0 0zM89.8 9.3l.1-.1-.1.1z"/><path fill="#F5C3AD" d="M89.9 9.1c.1 0 0 0 0 0z"/><path fill="#E37272" d="M89.7 3l.1.1c-.1 0-.1-.1-.1-.1z"/><path fill="#D73434" d="M86.9 15.1s.1 0 0 0c.1 0 0 0 0 0z"/><path fill="#F5C3AD" d="M82.8 13.6l.1.1s-.1 0-.1-.1z"/><path fill="#D73434" d="M82.4 14.5z"/><path fill="#F5C3AD" d="M84.5 7.4c.1-.1.1-.1 0 0 .1-.1.1-.1 0 0zM85.5 8.4z"/><path fill="#E37272" d="M82.8 11.5s0 .1 0 0c0 .1 0 0 0 0z"/><path fill="#D73434" d="M83.9 11.3c0 .1 0 .1 0 0 0 .1 0 .1 0 0-.1 0-.1 0 0 0z"/><path fill="#F5C3AD" d="M83.8 11.3z"/><path fill="#D73434" d="M83.2 10.6zM82.4 12.7c.1 0 .1.1 0 0 .1.1.1.1 0 0z"/><path fill="#F5C3AD" d="M82.9 12.3l.1.1s0-.1-.1-.1z"/><path fill="#E37272" d="M82.9 12.2c0 .1 0 .1 0 0 0 .1 0 .1 0 0zM85.4.5s.1 0 0 0c.1 0 .1 0 0 0 .1 0 0 0 0 0zM85.5.5c.1 0 .1 0 0 0 .1 0 .1 0 0 0zM85.6.5c.1 0 .1 0 0 0 .1 0 0 0 0 0zM85.7.5c.1 0 .1 0 0 0 .1 0 0 0 0 0zM86.2 1.7c.1 0 .1 0 0 0zM85.5 1.7c.1 0 .1 0 0 0 .1 0 .1 0 0 0zM82 2.2z"/><path fill="#D73434" d="M82 2.5s0 .1 0 0c0 .1 0 .1 0 0 0 .1 0 .1 0 0z"/><path fill="#E37272" d="M92.1 6.6c0 .1 0 0 0 0z"/><path fill="#D73434" d="M92.1 6.8c0 .1 0 .1 0 0z"/><path fill="#E37272" d="M82.8 10.4s.1 0 0 0c.1 0 .1 0 0 0zM87.2 12.8s0 .1 0 0c0 .1 0 0 0 0z"/><path fill="#D73434" d="M87.2 13.1v0z"/><path fill="#E37272" d="M87.2 13.3z"/><path fill="#F5C3AD" d="M85.8 13.4h0z"/><path fill="#D73434" d="M85.8 14.1s.1 0 0 0c.1 0 0 0 0 0zM87.7 14.5z"/><path fill="#E37272" d="M85.5 15.6s.1 0 0 0c.1 0 .1 0 0 0 .1 0 0 0 0 0zM85.7 1.7zM85.4 13.4h0z"/><path fill="#D73434" d="M85.3.5z"/><path fill="#E37272" d="M85.8 1.7h.4-.4z"/><path fill="#D73434" d="M82 2.3v.1-.1z"/><path fill="#E37272" d="M85.3 12.1h0zM87.8 13v0z"/><path fill="#D73434" d="M85.6 14.1c.1 0 .1 0 0 0 .1 0 .1 0 0 0z"/><path fill="#E37272" d="M85.6 15h.2-.2z"/><path fill="#D73434" d="M85.3 15.6s.1 0 0 0c.1 0 0 0 0 0z"/></g><g><path fill="#020202" d="M75.8 8.7l-.1-.2c-.3 0-.4-.3-.7-.5-.2-.2-.5-.3-.7-.4.7-.3 1.1-.8 1.4-1.4.2-.5.1-.9-.1-1.3-.3-.4-.6-.7-1.1-.9-.3-.1-.7-.1-1 0l-.7.2.2-.5c.2-.7.2-1.4-.2-2l-.1-.1c-.3-.5-.8-.9-1.4-1-.7-.2-1.3-.1-1.9.2-.6.3-1 .8-1.2 1.5v.2l-.2-.2-.2-.4c-.4-.5-.8-.8-1.4-1-.5-.1-.9-.1-1.3.2-.5.3-.7.7-.8 1.3-.1.6 0 1.2.3 1.8l.2.2-.5-.2c-.6-.2-1.3-.1-1.9.3-.6.3-1 .8-1.3 1.4-.2.6-.2 1.2.1 1.7.1.2.3.4.5.6.3.3.6.4 1 .5h.2l-.4.3c-.3.3-.5.6-.6.9-.1.4-.1.8.2 1.1.1.2.2.3.4.4.2.2.4.3.6.3.5.1 1 .1 1.5-.1l-.4.6-.1.3c-.2.7-.2 1.3.2 1.9.2.2.3.5.5.6.3.2.6.4 1 .5.6.2 1.3.2 1.9-.2.6-.3 1-.8 1.2-1.5v-.1c.4.5.8.8 1.2.9.4.1.9.1 1.3-.2.4-.2.6-.6.8-1 .1-.5.1-.9 0-1.5.2.2.4.3.7.3.7.2 1.3.2 1.9-.1.6-.3 1-.8 1.2-1.5.2-.6.1-1.3-.2-1.9zm-3-3.5h.1c.3-.2.7-.2 1.1-.2s.6.2.8.5l.1.3V6c-.2.4-.5.7-1 .9-.2.1-.5.2-.7.2l-2.7.3V7.1l.1-.1 2.2-1.8zM69 2.7v-.2c.1-.4.4-.8.8-1 .4-.2.8-.3 1.2-.1.4.2.7.4.9.8.1.2.2.5.2.8l-.1.4c-.1.2-.2.5-.3.6l-1.9 2.4c-.2-.2-.4-.3-.6-.4L69 3.6v-.9zm-3.4-.9c.1-.1.3-.1.5 0 .4.1.7.4 1 .9.1.2.2.4.3.7l.4 2.6-.3.1L65.6 4l-.1-.2c-.2-.4-.3-.8-.3-1.2s.2-.6.4-.8zm-3.4 5.4c-.2-.3-.2-.6 0-1s.4-.7.8-.9c.3-.2.6-.2 1.1-.1l.6.2 1.9 1.4c-.2.2-.3.4-.3.6l-3.1.4H63c-.4-.1-.6-.2-.8-.6zm2.5 3.4c-.4.2-.8.3-1.1.2-.3 0-.6-.1-.7-.3l-.1-.2v-.2c.1-.3.4-.6.9-.9.3 0 .5-.1.7-.2l1.7-.3.2.4.1.2c-.4.3-.6.5-.9.7l-.6.5-.2.1zm3.4 3.1v.2c-.2.4-.4.7-.8.9-.4.2-.8.3-1.2.2s-.8-.4-.9-.7c-.1-.2-.2-.5-.2-.7l.1-.5c0-.2.2-.4.3-.6l1.8-2.2c.2-.1.4.1.7.1 0 .7.1 1.5.2 2.4v.9zm.3-4.1c-.4 0-.8-.2-1-.4-.3-.3-.4-.6-.4-1s.1-.7.4-1c.3-.2.6-.4 1-.4s.8.2 1 .4c.3.3.4.6.4 1s-.1.8-.4 1c-.3.3-.6.4-1 .4zm2.6 4.2c-.2.1-.3.1-.5.1-.4-.1-.7-.4-1-1l-.3-.7-.3-1.9.4-.1.2-.1.9.9.6.7.1.2c.2.4.3.7.3 1.1s-.2.7-.4.8zm4-3.3c-.1.4-.4.8-.7.9-.4.2-.8.3-1.2.1-.3-.1-.4-.2-.6-.3l-2.3-1.9.2-.3.1-.2 2.4-.2H74c.3.1.6.3.8.6.2.2.3.6.3.9l-.1.4z"/><path fill="#48F600" d="M74 8.6h-1.1l-2.4.2-.1.2-.2.3 2.3 1.9c.2.1.3.2.6.3.4.2.8.1 1.2-.1.3-.1.6-.5.7-.9l.1-.4c0-.3-.1-.7-.3-.9-.2-.3-.5-.5-.8-.6zM65.6 4l1.9 2.1.3-.1-.4-2.6c-.1-.3-.2-.5-.3-.7-.3-.5-.6-.8-1-.9-.2-.1-.4-.1-.5 0-.2.2-.4.4-.4.8s.1.8.3 1.2l.1.2zM70.5 7.1V7.4l2.7-.3c.2 0 .5-.1.7-.2.5-.2.8-.5 1-.9v-.2l-.1-.3c-.2-.3-.4-.5-.8-.5s-.8 0-1.1.2h-.1L70.6 7l-.1.1zM69.8 6.4L71.7 4c.1-.1.2-.4.3-.6l.1-.4c0-.3-.1-.6-.2-.8-.2-.4-.5-.6-.9-.8-.4-.2-.8-.1-1.2.1-.4.2-.7.6-.8 1v1.1l.2 2.4c.2.1.4.2.6.4zM63.2 7.8l3.1-.4c0-.2.1-.4.3-.6l-1.9-1.4-.6-.2c-.5-.1-.8-.1-1.1.1-.4.2-.6.5-.8.9-.2.4-.2.7 0 1 .2.4.4.5.8.6h.2zM71 11.7l-.6-.7-.9-.9-.2.1-.4.1.3 1.9.3.7c.3.6.6.9 1 1 .2 0 .3 0 .5-.1s.4-.4.4-.8-.1-.7-.3-1.1l-.1-.2zM67.2 10.3l-1.8 2.2c-.1.2-.3.4-.3.6l-.1.5c0 .2.1.5.2.7.1.3.5.6.9.7s.8 0 1.2-.2c.4-.2.6-.5.8-.9v-1.1c-.1-.9-.2-1.7-.2-2.4-.3 0-.5-.2-.7-.1z"/><path fill="#FF001C" d="M66.4 9.3l-.1-.2-.2-.4-1.7.3c-.2.1-.4.2-.7.2-.5.3-.8.6-.9.9v.2l.1.2c.1.2.4.3.7.3.3.1.7 0 1.1-.2l.2-.1.6-.5c.3-.2.5-.4.9-.7z"/><path fill="#FDFB12" d="M69.8 8.2c0-.4-.1-.7-.4-1-.2-.2-.6-.4-1-.4s-.7.2-1 .4c-.3.3-.4.6-.4 1s.1.7.4 1c.2.2.6.4 1 .4s.7-.1 1-.4c.3-.2.4-.6.4-1z"/></g><g><circle fill="#A2D6FF" cx="48.5" cy="8" r="7.5"/><path fill="#335287" d="M48.6.5C44.4.5 41 3.9 41 8.1c0 4.2 3.4 7.6 7.6 7.6s7.6-3.4 7.6-7.6C56.1 3.9 52.7.5 48.6.5zm6.2 5.3h-.4V6h-.1l-.1-.1-.7-.2v-.4l-.8.1-.3.1h-.5l-.4.2v.4l-.8.6.1.3h.2v.2h-.1v.6l.7.8H52.5l.2-.1h.3v.2h.5l-.1.6.5.9-.3.5v.2l.2.2v.6l.3.4v.4c-1.3 1.6-3.4 2.7-5.6 2.7-3.7 0-6.8-2.8-7.2-6.5v-.2V7.7v-.1c.1-.8.3-1.6.6-2.3v.4l.3.1v.6l.3.5h.2v-.2l-.3-.4-.1-.4h.2l.1.4.4.6v.2l.3.4.6.2v-.2h.3v.2h.2l.3.1.4.5h.6l.1.5-.4.3v.4l-.1.3.6.7v.2l.2.1.5.3v1.3h.2l-.2.6.3.3v.6l.3.6.4.4h.4v-.1l-.3-.3v-.1l.1-.2V14h-.2l-.1-.1.2-.2v-.1l-.2-.1v-.1h.3l.4-.2.1-.3.5-.6-.1-.5.1-.2h.4l.3-.2.1-.9.3-.4.1-.3-.3-.1-.2-.3h-.6l-.5-.2v-.4l-.2-.3h-.5l-.3-.4-.2-.1v.1h-.4l-.2-.2-.5-.1-.4.4-.6-.1v-.7l-.4-.1.2-.3-.1-.2-.6.4h-.4V7l.1-.3.2-.4.5-.2h.9v.3l.3.1V6l.2-.2.5-.3v-.2l.5-.5.5-.3.3-.3h.1l.1.1.1-.1h-.2V4l.1-.1h.2L48 4v.1H48.3V4h.1v.1l-.1.1v.1l.4.1h.1v-.2l-.3-.1V4l.3-.1v-.3l-.3-.2V3l-.4.2H48v-.3l-.5-.1-.2.2v.5l-.3.1-.2.3h-.2v-.4h-.4l-.2-.1v-.3l.7-.4.3-.1v.2h.2v-.1h.2-.1v-.1h.2l.1-.1.5-.1.2.2-.6.3.7.2.1-.2h.5l.1-.2-.2-.1v-.5l-.7-.3-.5.1-.3.1v.3h-.3v-.2l.3-.2h-.6l-.1.1h.2v.2h-.3v.1h-.5V2h.4l.3-.3-.1-.1-.4.4H46l-.2-.3h-.4l-.5.3h.4v.1l-.1.1h.4l.1.2h-.5v-.1l-.3-.1-.2-.1h-.3C45.6 1.3 47 .8 48.5.8c1.9 0 3.6.7 4.9 1.9l-.3.1-.1.2v.2h.2l.1.3.3-.1v.4h-.7l-.3.4-.4.1-.1.3h.2v.2l-.4-.1-.4.1-.1.2.1.4.2.1h.5l.1-.2.4-.5h.2l.2-.2v.2l.9.3v.1h-.3l.1.1h.2l.2-.1V5h.1-.1l-.4-.2-.1-.3h.3l.1.1.3.2v.3l.3.3.1-.4.2-.1v.3l.2.2h.1c.1.2.2.4.2.6h-.3l-.4-.2z"/></g><path fill="#335287" d="M16 3c0-.8-.6-1.4-1.4-1.5h-13-.1C.7 1.5 0 2.2 0 3v6.1c.1.7.7 1.3 1.5 1.3H3l3 3 3-3h5.6c.7-.1 1.3-.6 1.4-1.3V3.3 3zM35 5.1v6.3c0 .4-.1.7-.4.9-.2.2-.5.4-.9.4H22.1c-.4 0-.7-.1-.9-.4-.3-.3-.4-.5-.4-.9V5.1c.2.3.5.5.8.7 1.9 1.3 3.2 2.2 3.9 2.7.3.2.5.4.8.5.2.1.4.3.8.4.3.1.6.2.9.2.3 0 .6 0 .9-.2.3-.1.6-.3.8-.4.2-.1.4-.3.8-.5.9-.7 2.2-1.5 3.9-2.7.1-.2.4-.4.6-.7zm0-2.3c0 .4-.1.8-.4 1.2-.3.4-.6.7-1 1-2 1.4-3.2 2.2-3.7 2.6l-.4.2c-.1.1-.2.2-.3.2s-.3.2-.4.3c-.2.1-.3.2-.4.2-.1 0-.3.1-.4.1-.1 0-.3 0-.4-.1-.1 0-.3-.1-.4-.2-.2-.1-.3-.2-.4-.3-.1-.1-.3-.2-.4-.3-.2-.1-.3-.2-.4-.2-.5-.4-1.2-.8-2.1-1.5-.9-.6-1.5-1-1.6-1.1-.3-.2-.6-.5-.9-.9-.2-.4-.4-.7-.4-1.1 0-.4.1-.8.3-1s.5-.4.9-.4h11.6c.4 0 .6.1.9.4.2.3.3.5.3.9z"/></svg>