<?xml version="1.0" encoding="utf-8"?>
<!-- Generator: Adobe Illustrator 13.0.0, SVG Export Plug-In . SVG Version: 6.00 Build 14948)  -->
<!DOCTYPE svg PUBLIC "-//W3C//DTD SVG 1.1//EN" "http://www.w3.org/Graphics/SVG/1.1/DTD/svg11.dtd">
<svg version="1.1" id="Calque_1" xmlns="http://www.w3.org/2000/svg" xmlns:xlink="http://www.w3.org/1999/xlink" x="0px" y="0px"
	 width="27px" height="27px" viewBox="0 0 27 27" enable-background="new 0 0 27 27" xml:space="preserve">
<g>
	<path fill="#2A77B9" d="M13.5,0C6,0,0,6,0,13.5S6,27,13.5,27S27,21,27,13.5S21,0,13.5,0z M13.5,26C6.6,26,1,20.4,1,13.5
		C1,6.6,6.6,1,13.5,1C20.4,1,26,6.6,26,13.5C26,20.4,20.4,26,13.5,26z"/>
	<path fill="#FFFFFF" d="M13.5,1C6.6,1,1,6.6,1,13.5C1,20.4,6.6,26,13.5,26S26,20.4,26,13.5C26,6.6,20.4,1,13.5,1z M13.5,24
		C7.7,24,3,19.3,3,13.5S7.7,3,13.5,3S24,7.7,24,13.5S19.3,24,13.5,24z"/>
	<circle fill="#FFFFFF" cx="13.5" cy="13.5" r="10.5"/>
	
		<linearGradient id="SVGID_1_" gradientUnits="userSpaceOnUse" x1="1547.1982" y1="-2798.4316" x2="1547.1982" y2="-2777.4316" gradientTransform="matrix(1 0 0 -1 -1533.6973 -2774.4316)">
		<stop  offset="0" style="stop-color:#FFFFFF"/>
		<stop  offset="1" style="stop-color:#D4D4D4"/>
	</linearGradient>
	<circle fill="url(#SVGID_1_)" cx="13.5" cy="13.5" r="10.5"/>
</g>
<g>
	<rect x="16" y="11.1" fill="#666666" width="3" height="0.9"/>
	<rect x="16" y="13.1" fill="#666666" width="3" height="0.9"/>
	<rect x="8" y="15" fill="#666666" width="11" height="1"/>
	<rect x="8" y="19" fill="#666666" width="6" height="1"/>
	<rect x="8" y="17" fill="#666666" width="11" height="1"/>
</g>
<g>
	<polygon fill="#266093" points="9,9.4 9,9.4 9,8 10,8 10.4,8 10.4,8 10.4,8 15,8 15,7 8,7 8,8 8,14 9,14 	"/>
	<polygon fill="#368AD2" points="15.1,12.7 11.4,9 15,9 15,8 10.4,8 10.4,8 10.4,8 10,8 9,8 9,9.4 9,9.4 9,9.4 9,14 10,14 10,10.4 
		13.7,14.1 	"/>
</g>
</svg>
