<svg xmlns="http://www.w3.org/2000/svg" width="27" height="27" viewBox="0 0 27 27"><path fill="#2A77B9" d="M13.5 0C6 0 0 6 0 13.5S6 27 13.5 27 27 21 27 13.5 21 0 13.5 0zm0 26C6.6 26 1 20.4 1 13.5S6.6 1 13.5 1 26 6.6 26 13.5 20.4 26 13.5 26z"/><path fill="#FFF" d="M13.5 1C6.6 1 1 6.6 1 13.5S6.6 26 13.5 26 26 20.4 26 13.5 20.4 1 13.5 1zm0 23C7.7 24 3 19.3 3 13.5S7.7 3 13.5 3 24 7.7 24 13.5 19.3 24 13.5 24z"/><circle fill="#FFF" cx="13.5" cy="13.5" r="10.5"/><linearGradient id="a" gradientUnits="userSpaceOnUse" x1="889.898" y1="1653.961" x2="889.898" y2="1632.961" gradientTransform="translate(-876.398 -1629.96)"><stop offset="0" stop-color="#FFF"/><stop offset="1" stop-color="#D4D4D4"/></linearGradient><circle fill="url(#a)" cx="13.5" cy="13.5" r="10.5"/><g><path fill="none" d="M15.9 10.9c0 .1 0 .1 0 0 0 .1 0 .1 0 0zM11 11c.1 0 .1 0 0 0 .1 0 .1 0 0 0zM15.9 10.7c-.3-.8-1-1.5-1.9-1.7.9.2 1.6.9 1.9 1.7zM13 9c-.9.2-1.6.8-1.9 1.7.3-.8 1-1.5 1.9-1.7zM13.5 10c-.8 0-1.5.7-1.5 1.5V13h3v-1.5c0-.8-.7-1.5-1.5-1.5z"/><path d="M17 13v-1.5C17 9.6 15.4 8 13.5 8S10 9.6 10 11.5V13H9v6h9v-6h-1zm0 5h-7v-4h1v-2.8-.2-.1c0-.1 0-.2.1-.2.3-.8 1-1.5 1.9-1.7h1c.9.2 1.6.8 1.9 1.7 0 .1 0 .2.1.2V14h1v4z"/><path fill="#A0A0A1" d="M16 13v-1.8-.2-.1c0-.1 0-.2-.1-.2-.3-.8-1-1.5-1.9-1.7h-1c-.9.2-1.6.8-1.9 1.7 0 .1 0 .2-.1.2V14h-1v4h7v-4h-1v-1zm-1 1h-3v-2.5c0-.8.7-1.5 1.5-1.5s1.5.7 1.5 1.5V14z"/><path d="M12 13h3v1h-3z"/></g></svg>